<svg xmlns="http://www.w3.org/2000/svg" version="1.1" xmlns:xlink="http://www.w3.org/1999/xlink" xmlns:svgjs="http://svgjs.com/svgjs" width="1440" height="560" preserveAspectRatio="none" viewBox="0 0 1440 560"><g mask="url(&quot;#SvgjsMask1067&quot;)" fill="none"><path d="M129.358,288.056C180.925,287.688,210.628,235.825,236.274,191.086C261.719,146.698,289.411,95.998,265.33,50.855C240.326,3.981,182.436,-11.607,129.358,-9.345C80.424,-7.26,35.438,18.598,12.079,61.647C-10.278,102.849,-1.796,151.008,19.765,192.632C43.644,238.73,77.443,288.427,129.358,288.056" fill="rgba(242, 113, 8, 0.4)" class="triangle-float1"></path><path d="M61.177,158.551C96.024,160.315,131.431,141.855,146.006,110.153C159.062,81.755,138.055,52.881,122.123,25.99C106.674,-0.087,91.472,-32.07,61.177,-33.03C29.956,-34.019,7.695,-5.741,-6.845,21.905C-20.218,47.332,-22.779,76.538,-9.976,102.257C4.469,131.275,28.804,156.912,61.177,158.551" fill="rgba(242, 113, 8, 0.4)" class="triangle-float3"></path><path d="M38.863,104.759C64.103,104.825,90.64,97.9,103.465,76.161C116.457,54.141,110.909,26.787,97.824,4.822C85.086,-16.562,63.745,-32.931,38.863,-32.287C14.885,-31.666,-2.814,-12.895,-15.036,7.744C-27.565,28.903,-37.099,54.33,-25.157,75.825C-12.967,97.766,13.763,104.693,38.863,104.759" fill="rgba(242, 113, 8, 0.4)" class="triangle-float1"></path><path d="M1401.704,168.883C1435.974,167.881,1468.584,151.904,1485.475,122.069C1502.136,92.64,1497.712,57.303,1481.758,27.485C1464.694,-4.407,1437.86,-33.483,1401.704,-34.494C1364.146,-35.544,1332.186,-9.817,1313.5,22.78C1294.924,55.184,1289.694,95.252,1308.998,127.228C1327.765,158.313,1365.409,169.944,1401.704,168.883" fill="rgba(242, 113, 8, 0.4)" class="triangle-float3"></path><path d="M1423.743,224.137C1466.201,224.863,1494.264,185.491,1515.71,148.84C1537.458,111.673,1556.652,68.658,1537.201,30.239C1516.255,-11.133,1469.946,-36.761,1423.743,-32.806C1382.42,-29.269,1357.693,9.843,1339.585,47.155C1324.195,78.866,1321.934,113.952,1337.071,145.784C1354.997,183.482,1382.006,223.423,1423.743,224.137" fill="rgba(242, 113, 8, 0.4)" class="triangle-float3"></path><path d="M1427.827,199.366C1467.209,198.079,1507.863,191.356,1530.508,159.11C1556.795,121.677,1567.329,72.088,1545.397,31.948C1522.726,-9.544,1474.958,-32.595,1427.827,-28.813C1385.873,-25.447,1360.326,12.257,1338.948,48.513C1317.068,85.62,1290.956,129.109,1312.823,166.224C1334.528,203.064,1385.091,200.763,1427.827,199.366" fill="rgba(242, 113, 8, 0.4)" class="triangle-float3"></path><path d="M19.958,514.29C38.728,515.319,59.256,512.323,69.497,496.56C80.48,479.655,79.357,456.891,68.13,440.146C57.935,424.94,38.228,421.518,19.958,422.674C3.926,423.689,-10.491,431.83,-18.696,445.641C-27.093,459.775,-29.058,477.276,-20.992,491.601C-12.786,506.175,3.257,513.375,19.958,514.29" fill="rgba(242, 113, 8, 0.4)" class="triangle-float1"></path><path d="M44.529,566.463C71.16,567.047,96.412,553.241,109.626,530.113C122.742,507.157,122.295,478.091,107.561,456.138C94.201,436.233,68.475,431.986,44.529,433.124C22.906,434.152,2.76,443.444,-8.912,461.675C-21.635,481.548,-26.528,506.344,-15.807,527.365C-4.137,550.247,18.849,565.9,44.529,566.463" fill="rgba(242, 113, 8, 0.4)" class="triangle-float1"></path><path d="M131.068,705.868C175.481,703.589,212.671,677.473,236.736,640.076C263.433,598.588,283.094,548.173,260.896,504.113C236.893,456.469,184.417,430.344,131.068,430.335C77.703,430.326,27.583,457.702,1.165,504.069C-25.002,549.997,-23.825,607.531,4.786,651.977C31.337,693.223,82.079,708.382,131.068,705.868" fill="rgba(242, 113, 8, 0.4)" class="triangle-float1"></path><path d="M1476.157,766.542C1535.243,764.534,1584.902,727.205,1614.803,676.204C1645.103,624.522,1659.416,559.46,1627.163,508.974C1596.58,461.103,1532.849,455.595,1476.157,459.185C1426.79,462.311,1383.014,485.438,1355.002,526.208C1321.872,574.428,1293.837,633.974,1320.172,686.215C1348.389,742.188,1413.51,768.671,1476.157,766.542" fill="rgba(242, 113, 8, 0.4)" class="triangle-float3"></path><path d="M1337.778,496.279C1352.383,496.707,1366.974,491.481,1374.958,479.244C1383.711,465.827,1385.94,448.468,1378.075,434.512C1370.085,420.334,1354.007,412.047,1337.778,413.27C1323.224,414.367,1313.577,426.966,1306.786,439.885C1300.573,451.705,1297.757,465.469,1304.188,477.171C1310.838,489.271,1323.977,495.875,1337.778,496.279" fill="rgba(242, 113, 8, 0.4)" class="triangle-float1"></path><path d="M1401.244,616.775C1436.853,617.581,1472.868,603.724,1490.785,572.941C1508.795,541.998,1503.949,503.264,1484.989,472.894C1467.145,444.312,1434.934,428.941,1401.244,429.515C1368.578,430.071,1338.968,447.567,1322.297,475.664C1305.259,504.379,1302.155,539.902,1318.457,569.041C1335.126,598.836,1367.112,616.003,1401.244,616.775" fill="rgba(242, 113, 8, 0.4)" class="triangle-float1"></path></g><defs><mask id="SvgjsMask1067"><rect width="1440" height="560" fill="#ffffff"></rect></mask><style>
            @keyframes float1 {
                0%{transform: translate(0, 0)}
                50%{transform: translate(-10px, 0)}
                100%{transform: translate(0, 0)}
            }

            .triangle-float1 {
                animation: float1 5s infinite;
            }

            @keyframes float2 {
                0%{transform: translate(0, 0)}
                50%{transform: translate(-5px, -5px)}
                100%{transform: translate(0, 0)}
            }

            .triangle-float2 {
                animation: float2 4s infinite;
            }

            @keyframes float3 {
                0%{transform: translate(0, 0)}
                50%{transform: translate(0, -10px)}
                100%{transform: translate(0, 0)}
            }

            .triangle-float3 {
                animation: float3 6s infinite;
            }
        </style></defs></svg>