<svg xmlns="http://www.w3.org/2000/svg" version="1.1" xmlns:xlink="http://www.w3.org/1999/xlink" xmlns:svgjs="http://svgjs.com/svgjs" width="1440" height="560" preserveAspectRatio="none" viewBox="0 0 1440 560"><g mask="url(&quot;#SvgjsMask1013&quot;)" fill="none"><path d="M1037 234L1036 -17" stroke-width="8" stroke="url(#SvgjsLinearGradient1014)" stroke-linecap="round" class="Up"></path><path d="M1219 347L1218 587" stroke-width="6" stroke="url(#SvgjsLinearGradient1015)" stroke-linecap="round" class="Up"></path><path d="M751 80L750 426" stroke-width="10" stroke="url(#SvgjsLinearGradient1015)" stroke-linecap="round" class="Up"></path><path d="M1429 9L1428 -145" stroke-width="10" stroke="url(#SvgjsLinearGradient1015)" stroke-linecap="round" class="Up"></path><path d="M711 391L710 789" stroke-width="8" stroke="url(#SvgjsLinearGradient1015)" stroke-linecap="round" class="Up"></path><path d="M1249 127L1248 -266" stroke-width="10" stroke="url(#SvgjsLinearGradient1014)" stroke-linecap="round" class="Up"></path><path d="M772 3L771 -200" stroke-width="8" stroke="url(#SvgjsLinearGradient1014)" stroke-linecap="round" class="Up"></path><path d="M574 380L573 660" stroke-width="10" stroke="url(#SvgjsLinearGradient1015)" stroke-linecap="round" class="Up"></path><path d="M827 499L826 235" stroke-width="8" stroke="url(#SvgjsLinearGradient1016)" stroke-linecap="round" class="Down"></path><path d="M414 445L413 215" stroke-width="6" stroke="url(#SvgjsLinearGradient1015)" stroke-linecap="round" class="Up"></path><path d="M196 491L195 135" stroke-width="6" stroke="url(#SvgjsLinearGradient1015)" stroke-linecap="round" class="Up"></path><path d="M1015 65L1014 -147" stroke-width="8" stroke="url(#SvgjsLinearGradient1016)" stroke-linecap="round" class="Down"></path><path d="M1293 335L1292 47" stroke-width="6" stroke="url(#SvgjsLinearGradient1016)" stroke-linecap="round" class="Down"></path><path d="M1073 329L1072 743" stroke-width="6" stroke="url(#SvgjsLinearGradient1014)" stroke-linecap="round" class="Up"></path><path d="M1108 517L1107 102" stroke-width="6" stroke="url(#SvgjsLinearGradient1014)" stroke-linecap="round" class="Up"></path><path d="M1249 251L1248 431" stroke-width="8" stroke="url(#SvgjsLinearGradient1017)" stroke-linecap="round" class="Down"></path><path d="M34 144L33 311" stroke-width="6" stroke="url(#SvgjsLinearGradient1016)" stroke-linecap="round" class="Down"></path><path d="M222 176L221 454" stroke-width="10" stroke="url(#SvgjsLinearGradient1014)" stroke-linecap="round" class="Up"></path><path d="M228 350L227 676" stroke-width="8" stroke="url(#SvgjsLinearGradient1015)" stroke-linecap="round" class="Up"></path><path d="M911 49L910 -254" stroke-width="10" stroke="url(#SvgjsLinearGradient1014)" stroke-linecap="round" class="Up"></path><path d="M586 393L585 15" stroke-width="6" stroke="url(#SvgjsLinearGradient1016)" stroke-linecap="round" class="Down"></path><path d="M352 327L351 104" stroke-width="10" stroke="url(#SvgjsLinearGradient1014)" stroke-linecap="round" class="Up"></path><path d="M167 241L166 434" stroke-width="6" stroke="url(#SvgjsLinearGradient1014)" stroke-linecap="round" class="Up"></path><path d="M779 477L778 322" stroke-width="6" stroke="url(#SvgjsLinearGradient1016)" stroke-linecap="round" class="Down"></path><path d="M430 59L429 435" stroke-width="10" stroke="url(#SvgjsLinearGradient1015)" stroke-linecap="round" class="Up"></path><path d="M281 406L280 102" stroke-width="8" stroke="url(#SvgjsLinearGradient1014)" stroke-linecap="round" class="Up"></path><path d="M98 469L97 842" stroke-width="6" stroke="url(#SvgjsLinearGradient1016)" stroke-linecap="round" class="Down"></path><path d="M958 324L957 162" stroke-width="10" stroke="url(#SvgjsLinearGradient1014)" stroke-linecap="round" class="Up"></path><path d="M469 411L468 195" stroke-width="8" stroke="url(#SvgjsLinearGradient1015)" stroke-linecap="round" class="Up"></path><path d="M989 118L988 422" stroke-width="8" stroke="url(#SvgjsLinearGradient1016)" stroke-linecap="round" class="Down"></path><path d="M56 488L55 188" stroke-width="8" stroke="url(#SvgjsLinearGradient1017)" stroke-linecap="round" class="Down"></path><path d="M1289 379L1288 600" stroke-width="10" stroke="url(#SvgjsLinearGradient1016)" stroke-linecap="round" class="Down"></path><path d="M15 143L14 -237" stroke-width="10" stroke="url(#SvgjsLinearGradient1015)" stroke-linecap="round" class="Up"></path><path d="M1107 351L1106 620" stroke-width="8" stroke="url(#SvgjsLinearGradient1017)" stroke-linecap="round" class="Down"></path><path d="M353 427L352 633" stroke-width="6" stroke="url(#SvgjsLinearGradient1016)" stroke-linecap="round" class="Down"></path><path d="M1082 539L1081 281" stroke-width="6" stroke="url(#SvgjsLinearGradient1015)" stroke-linecap="round" class="Up"></path></g><defs><mask id="SvgjsMask1013"><rect width="1440" height="560" fill="#ffffff"></rect></mask><linearGradient x1="0%" y1="100%" x2="0%" y2="0%" id="SvgjsLinearGradient1014"><stop stop-color="rgba(247, 139, 31, 0)" offset="0"></stop><stop stop-color="rgba(247, 139, 31, 1)" offset="1"></stop></linearGradient><linearGradient x1="0%" y1="100%" x2="0%" y2="0%" id="SvgjsLinearGradient1015"><stop stop-color="rgba(230, 131, 9, 0)" offset="0"></stop><stop stop-color="rgba(230, 131, 9, 1)" offset="1"></stop></linearGradient><linearGradient x1="0%" y1="0%" x2="0%" y2="100%" id="SvgjsLinearGradient1016"><stop stop-color="rgba(247, 139, 31, 0)" offset="0"></stop><stop stop-color="rgba(247, 139, 31, 1)" offset="1"></stop></linearGradient><linearGradient x1="0%" y1="0%" x2="0%" y2="100%" id="SvgjsLinearGradient1017"><stop stop-color="rgba(230, 131, 9, 0)" offset="0"></stop><stop stop-color="rgba(230, 131, 9, 1)" offset="1"></stop></linearGradient></defs></svg>